<mxfile host="app.diagrams.net" agent="Mozilla/5.0 (Windows NT 10.0; Win64; x64) AppleWebKit/537.36 (KHTML, like Gecko) Chrome/131.0.0.0 Safari/537.36" version="25.0.3">
  <diagram name="Page-1" id="2YBvvXClWsGukQMizWep">
    <mxGraphModel dx="1984" dy="637" grid="1" gridSize="10" guides="1" tooltips="1" connect="1" arrows="1" fold="1" page="1" pageScale="1" pageWidth="850" pageHeight="1100" background="none" math="0" shadow="0">
      <root>
        <mxCell id="0" />
        <mxCell id="1" parent="0" />
        <mxCell id="--oIoFJsZWJyj96HP7yD-14" value="&lt;div&gt;&lt;span style=&quot;background-color: initial;&quot;&gt;排程表UI&lt;/span&gt;&lt;/div&gt;" style="shape=umlLifeline;perimeter=lifelinePerimeter;whiteSpace=wrap;html=1;container=1;dropTarget=0;collapsible=0;recursiveResize=0;outlineConnect=0;portConstraint=eastwest;newEdgeStyle={&quot;curved&quot;:0,&quot;rounded&quot;:0};participant=umlBoundary;size=60;" vertex="1" parent="1">
          <mxGeometry x="-30" y="45" width="80" height="760" as="geometry" />
        </mxCell>
        <mxCell id="--oIoFJsZWJyj96HP7yD-62" value="" style="html=1;points=[[0,0,0,0,5],[0,1,0,0,-5],[1,0,0,0,5],[1,1,0,0,-5]];perimeter=orthogonalPerimeter;outlineConnect=0;targetShapes=umlLifeline;portConstraint=eastwest;newEdgeStyle={&quot;curved&quot;:0,&quot;rounded&quot;:0};" vertex="1" parent="--oIoFJsZWJyj96HP7yD-14">
          <mxGeometry x="35" y="580" width="10" height="140" as="geometry" />
        </mxCell>
        <mxCell id="--oIoFJsZWJyj96HP7yD-49" value="" style="html=1;points=[[0,0,0,0,5],[0,1,0,0,-5],[1,0,0,0,5],[1,1,0,0,-5]];perimeter=orthogonalPerimeter;outlineConnect=0;targetShapes=umlLifeline;portConstraint=eastwest;newEdgeStyle={&quot;curved&quot;:0,&quot;rounded&quot;:0};" vertex="1" parent="--oIoFJsZWJyj96HP7yD-14">
          <mxGeometry x="35" y="405" width="10" height="135" as="geometry" />
        </mxCell>
        <mxCell id="--oIoFJsZWJyj96HP7yD-15" value="&lt;div&gt;輸入行程UI&lt;/div&gt;" style="shape=umlLifeline;perimeter=lifelinePerimeter;whiteSpace=wrap;html=1;container=1;dropTarget=0;collapsible=0;recursiveResize=0;outlineConnect=0;portConstraint=eastwest;newEdgeStyle={&quot;curved&quot;:0,&quot;rounded&quot;:0};participant=umlBoundary;size=60;" vertex="1" parent="1">
          <mxGeometry x="190" y="40" width="80" height="760" as="geometry" />
        </mxCell>
        <mxCell id="--oIoFJsZWJyj96HP7yD-40" value="" style="html=1;points=[[0,0,0,0,5],[0,1,0,0,-5],[1,0,0,0,5],[1,1,0,0,-5]];perimeter=orthogonalPerimeter;outlineConnect=0;targetShapes=umlLifeline;portConstraint=eastwest;newEdgeStyle={&quot;curved&quot;:0,&quot;rounded&quot;:0};" vertex="1" parent="--oIoFJsZWJyj96HP7yD-15">
          <mxGeometry x="35" y="259" width="10" height="100" as="geometry" />
        </mxCell>
        <mxCell id="--oIoFJsZWJyj96HP7yD-16" value="AI對話框UI" style="shape=umlLifeline;perimeter=lifelinePerimeter;whiteSpace=wrap;html=1;container=1;dropTarget=0;collapsible=0;recursiveResize=0;outlineConnect=0;portConstraint=eastwest;newEdgeStyle={&quot;curved&quot;:0,&quot;rounded&quot;:0};participant=umlBoundary;size=60;" vertex="1" parent="1">
          <mxGeometry x="310" y="40" width="80" height="760" as="geometry" />
        </mxCell>
        <mxCell id="--oIoFJsZWJyj96HP7yD-47" value="" style="html=1;points=[[0,0,0,0,5],[0,1,0,0,-5],[1,0,0,0,5],[1,1,0,0,-5]];perimeter=orthogonalPerimeter;outlineConnect=0;targetShapes=umlLifeline;portConstraint=eastwest;newEdgeStyle={&quot;curved&quot;:0,&quot;rounded&quot;:0};" vertex="1" parent="--oIoFJsZWJyj96HP7yD-16">
          <mxGeometry x="35" y="437.5" width="10" height="80" as="geometry" />
        </mxCell>
        <mxCell id="--oIoFJsZWJyj96HP7yD-17" value="修改行程UI" style="shape=umlLifeline;perimeter=lifelinePerimeter;whiteSpace=wrap;html=1;container=1;dropTarget=0;collapsible=0;recursiveResize=0;outlineConnect=0;portConstraint=eastwest;newEdgeStyle={&quot;curved&quot;:0,&quot;rounded&quot;:0};participant=umlBoundary;size=60;" vertex="1" parent="1">
          <mxGeometry x="430" y="40" width="80" height="760" as="geometry" />
        </mxCell>
        <mxCell id="--oIoFJsZWJyj96HP7yD-18" value="Application core" style="shape=umlLifeline;perimeter=lifelinePerimeter;whiteSpace=wrap;html=1;container=1;dropTarget=0;collapsible=0;recursiveResize=0;outlineConnect=0;portConstraint=eastwest;newEdgeStyle={&quot;curved&quot;:0,&quot;rounded&quot;:0};" vertex="1" parent="1">
          <mxGeometry x="560" y="50" width="100" height="750" as="geometry" />
        </mxCell>
        <mxCell id="--oIoFJsZWJyj96HP7yD-55" value="" style="html=1;points=[[0,0,0,0,5],[0,1,0,0,-5],[1,0,0,0,5],[1,1,0,0,-5]];perimeter=orthogonalPerimeter;outlineConnect=0;targetShapes=umlLifeline;portConstraint=eastwest;newEdgeStyle={&quot;curved&quot;:0,&quot;rounded&quot;:0};" vertex="1" parent="--oIoFJsZWJyj96HP7yD-18">
          <mxGeometry x="45" y="465" width="10" height="70" as="geometry" />
        </mxCell>
        <mxCell id="--oIoFJsZWJyj96HP7yD-67" value="" style="html=1;points=[[0,0,0,0,5],[0,1,0,0,-5],[1,0,0,0,5],[1,1,0,0,-5]];perimeter=orthogonalPerimeter;outlineConnect=0;targetShapes=umlLifeline;portConstraint=eastwest;newEdgeStyle={&quot;curved&quot;:0,&quot;rounded&quot;:0};" vertex="1" parent="--oIoFJsZWJyj96HP7yD-18">
          <mxGeometry x="45" y="655" width="10" height="60" as="geometry" />
        </mxCell>
        <mxCell id="--oIoFJsZWJyj96HP7yD-30" value="" style="html=1;points=[[0,0,0,0,5],[0,1,0,0,-5],[1,0,0,0,5],[1,1,0,0,-5]];perimeter=orthogonalPerimeter;outlineConnect=0;targetShapes=umlLifeline;portConstraint=eastwest;newEdgeStyle={&quot;curved&quot;:0,&quot;rounded&quot;:0};" vertex="1" parent="--oIoFJsZWJyj96HP7yD-18">
          <mxGeometry x="45" y="140" width="10" height="50" as="geometry" />
        </mxCell>
        <mxCell id="--oIoFJsZWJyj96HP7yD-44" value="" style="html=1;points=[[0,0,0,0,5],[0,1,0,0,-5],[1,0,0,0,5],[1,1,0,0,-5]];perimeter=orthogonalPerimeter;outlineConnect=0;targetShapes=umlLifeline;portConstraint=eastwest;newEdgeStyle={&quot;curved&quot;:0,&quot;rounded&quot;:0};" vertex="1" parent="--oIoFJsZWJyj96HP7yD-18">
          <mxGeometry x="45" y="289" width="10" height="71" as="geometry" />
        </mxCell>
        <mxCell id="--oIoFJsZWJyj96HP7yD-19" value="&lt;span style=&quot;font-family: &amp;quot;Architects Daughter&amp;quot;; text-wrap-mode: nowrap;&quot;&gt;繁忙疏於管理的人&lt;/span&gt;" style="shape=umlLifeline;perimeter=lifelinePerimeter;whiteSpace=wrap;html=1;container=1;dropTarget=0;collapsible=0;recursiveResize=0;outlineConnect=0;portConstraint=eastwest;newEdgeStyle={&quot;curved&quot;:0,&quot;rounded&quot;:0};participant=umlActor;size=90;verticalAlign=bottom;gradientColor=default;" vertex="1" parent="1">
          <mxGeometry x="-120" y="45" width="50" height="760" as="geometry" />
        </mxCell>
        <mxCell id="--oIoFJsZWJyj96HP7yD-45" value="" style="html=1;points=[[0,0,0,0,5],[0,1,0,0,-5],[1,0,0,0,5],[1,1,0,0,-5]];perimeter=orthogonalPerimeter;outlineConnect=0;targetShapes=umlLifeline;portConstraint=eastwest;newEdgeStyle={&quot;curved&quot;:0,&quot;rounded&quot;:0};" vertex="1" parent="--oIoFJsZWJyj96HP7yD-19">
          <mxGeometry x="20" y="410" width="10" height="50" as="geometry" />
        </mxCell>
        <mxCell id="--oIoFJsZWJyj96HP7yD-59" value="" style="html=1;points=[[0,0,0,0,5],[0,1,0,0,-5],[1,0,0,0,5],[1,1,0,0,-5]];perimeter=orthogonalPerimeter;outlineConnect=0;targetShapes=umlLifeline;portConstraint=eastwest;newEdgeStyle={&quot;curved&quot;:0,&quot;rounded&quot;:0};" vertex="1" parent="--oIoFJsZWJyj96HP7yD-19">
          <mxGeometry x="20" y="580" width="10" height="50" as="geometry" />
        </mxCell>
        <mxCell id="--oIoFJsZWJyj96HP7yD-37" value="" style="html=1;points=[[0,0,0,0,5],[0,1,0,0,-5],[1,0,0,0,5],[1,1,0,0,-5]];perimeter=orthogonalPerimeter;outlineConnect=0;targetShapes=umlLifeline;portConstraint=eastwest;newEdgeStyle={&quot;curved&quot;:0,&quot;rounded&quot;:0};" vertex="1" parent="--oIoFJsZWJyj96HP7yD-19">
          <mxGeometry x="20" y="254" width="10" height="50" as="geometry" />
        </mxCell>
        <mxCell id="--oIoFJsZWJyj96HP7yD-20" value="" style="html=1;points=[[0,0,0,0,5],[0,1,0,0,-5],[1,0,0,0,5],[1,1,0,0,-5]];perimeter=orthogonalPerimeter;outlineConnect=0;targetShapes=umlLifeline;portConstraint=eastwest;newEdgeStyle={&quot;curved&quot;:0,&quot;rounded&quot;:0};" vertex="1" parent="--oIoFJsZWJyj96HP7yD-19">
          <mxGeometry x="20" y="105" width="10" height="40" as="geometry" />
        </mxCell>
        <mxCell id="--oIoFJsZWJyj96HP7yD-28" value="&lt;div&gt;4. 輸入固定行程()&lt;/div&gt;" style="html=1;verticalAlign=bottom;startArrow=none;startFill=0;endArrow=classicThin;startSize=6;endSize=8;curved=0;rounded=0;endFill=1;entryX=0;entryY=0;entryDx=0;entryDy=5;entryPerimeter=0;exitX=1;exitY=0;exitDx=0;exitDy=5;exitPerimeter=0;" edge="1" parent="1" source="--oIoFJsZWJyj96HP7yD-37" target="--oIoFJsZWJyj96HP7yD-40">
          <mxGeometry width="80" relative="1" as="geometry">
            <mxPoint x="-90" y="300" as="sourcePoint" />
            <mxPoint x="225" y="300" as="targetPoint" />
          </mxGeometry>
        </mxCell>
        <mxCell id="--oIoFJsZWJyj96HP7yD-31" value="1:查看日程表()" style="html=1;verticalAlign=bottom;startArrow=none;startFill=0;endArrow=classicThin;startSize=6;endSize=8;curved=0;rounded=0;endFill=1;entryX=0;entryY=0;entryDx=0;entryDy=5;entryPerimeter=0;exitX=1;exitY=0;exitDx=0;exitDy=5;exitPerimeter=0;" edge="1" parent="1" source="--oIoFJsZWJyj96HP7yD-20" target="--oIoFJsZWJyj96HP7yD-23">
          <mxGeometry width="80" relative="1" as="geometry">
            <mxPoint x="-90" y="155" as="sourcePoint" />
            <mxPoint x="45" y="165" as="targetPoint" />
          </mxGeometry>
        </mxCell>
        <mxCell id="--oIoFJsZWJyj96HP7yD-32" value="2:顯示行程資料()" style="html=1;verticalAlign=bottom;startArrow=none;startFill=0;endArrow=classicThin;startSize=6;endSize=8;curved=0;rounded=0;endFill=1;entryX=0;entryY=0;entryDx=0;entryDy=5;entryPerimeter=0;" edge="1" parent="1" source="--oIoFJsZWJyj96HP7yD-23" target="--oIoFJsZWJyj96HP7yD-30">
          <mxGeometry width="80" relative="1" as="geometry">
            <mxPoint x="100" y="180" as="sourcePoint" />
            <mxPoint x="199.5" y="180" as="targetPoint" />
          </mxGeometry>
        </mxCell>
        <mxCell id="--oIoFJsZWJyj96HP7yD-36" value="3.檢視行程資料()" style="html=1;verticalAlign=bottom;endArrow=classic;dashed=1;endSize=8;curved=0;rounded=0;endFill=1;exitX=0;exitY=1;exitDx=0;exitDy=-5;exitPerimeter=0;" edge="1" parent="1" source="--oIoFJsZWJyj96HP7yD-30" target="--oIoFJsZWJyj96HP7yD-15">
          <mxGeometry relative="1" as="geometry">
            <mxPoint x="240" y="230" as="targetPoint" />
            <mxPoint x="609.5" y="230" as="sourcePoint" />
          </mxGeometry>
        </mxCell>
        <mxCell id="--oIoFJsZWJyj96HP7yD-41" value="5. 傳送行程資料()" style="html=1;verticalAlign=bottom;startArrow=none;startFill=0;endArrow=classicThin;startSize=6;endSize=8;curved=0;rounded=0;endFill=1;entryX=0;entryY=0;entryDx=0;entryDy=5;entryPerimeter=0;" edge="1" parent="1" source="--oIoFJsZWJyj96HP7yD-40" target="--oIoFJsZWJyj96HP7yD-44">
          <mxGeometry x="-0.0654" width="80" relative="1" as="geometry">
            <mxPoint x="235" y="340" as="sourcePoint" />
            <mxPoint x="609.5000000000005" y="340" as="targetPoint" />
            <mxPoint x="-1" as="offset" />
          </mxGeometry>
        </mxCell>
        <mxCell id="--oIoFJsZWJyj96HP7yD-43" value="6.檢視行程資料()" style="html=1;verticalAlign=bottom;endArrow=classic;dashed=1;endSize=8;curved=0;rounded=0;endFill=1;exitX=0;exitY=1;exitDx=0;exitDy=-5;exitPerimeter=0;" edge="1" parent="1" source="--oIoFJsZWJyj96HP7yD-44" target="--oIoFJsZWJyj96HP7yD-14">
          <mxGeometry relative="1" as="geometry">
            <mxPoint x="230" y="400" as="targetPoint" />
            <mxPoint x="609.5" y="400" as="sourcePoint" />
          </mxGeometry>
        </mxCell>
        <mxCell id="--oIoFJsZWJyj96HP7yD-46" value="&lt;div&gt;8.點擊ai優化按鈕()&lt;/div&gt;" style="html=1;verticalAlign=bottom;startArrow=none;startFill=0;endArrow=classicThin;startSize=6;endSize=8;curved=0;rounded=0;endFill=1;entryX=0;entryY=0;entryDx=0;entryDy=5;entryPerimeter=0;" edge="1" parent="1" source="--oIoFJsZWJyj96HP7yD-49" target="--oIoFJsZWJyj96HP7yD-47">
          <mxGeometry width="80" relative="1" as="geometry">
            <mxPoint x="89.07142857142844" y="480" as="sourcePoint" />
            <mxPoint x="349.5" y="480" as="targetPoint" />
          </mxGeometry>
        </mxCell>
        <mxCell id="--oIoFJsZWJyj96HP7yD-48" value="&lt;div&gt;7. 查看排程表()&lt;/div&gt;" style="html=1;verticalAlign=bottom;startArrow=none;startFill=0;endArrow=classicThin;startSize=6;endSize=8;curved=0;rounded=0;endFill=1;entryX=0;entryY=0;entryDx=0;entryDy=5;entryPerimeter=0;" edge="1" parent="1" target="--oIoFJsZWJyj96HP7yD-49">
          <mxGeometry width="80" relative="1" as="geometry">
            <mxPoint x="-90" y="455" as="sourcePoint" />
            <mxPoint x="10" y="455" as="targetPoint" />
          </mxGeometry>
        </mxCell>
        <mxCell id="--oIoFJsZWJyj96HP7yD-51" value="&lt;div&gt;9. 向ai要求()&lt;/div&gt;" style="html=1;verticalAlign=bottom;startArrow=none;startFill=0;endArrow=classicThin;startSize=6;endSize=8;curved=0;rounded=0;endFill=1;entryX=0;entryY=0;entryDx=0;entryDy=5;entryPerimeter=0;" edge="1" parent="1" source="--oIoFJsZWJyj96HP7yD-47" target="--oIoFJsZWJyj96HP7yD-55">
          <mxGeometry width="80" relative="1" as="geometry">
            <mxPoint x="360" y="510" as="sourcePoint" />
            <mxPoint x="614.5" y="510" as="targetPoint" />
          </mxGeometry>
        </mxCell>
        <mxCell id="--oIoFJsZWJyj96HP7yD-54" value="10.ai優化排程資料回傳()" style="html=1;verticalAlign=bottom;endArrow=classic;dashed=1;endSize=8;curved=0;rounded=0;endFill=1;entryX=1;entryY=1;entryDx=0;entryDy=-5;entryPerimeter=0;exitX=0;exitY=1;exitDx=0;exitDy=-5;exitPerimeter=0;" edge="1" parent="1" source="--oIoFJsZWJyj96HP7yD-55" target="--oIoFJsZWJyj96HP7yD-49">
          <mxGeometry relative="1" as="geometry">
            <mxPoint x="469.07142857142844" y="590" as="targetPoint" />
            <mxPoint x="605" y="590" as="sourcePoint" />
          </mxGeometry>
        </mxCell>
        <mxCell id="--oIoFJsZWJyj96HP7yD-61" value="&lt;div&gt;11.查看排程表()&lt;/div&gt;" style="html=1;verticalAlign=bottom;startArrow=none;startFill=0;endArrow=classicThin;startSize=6;endSize=8;curved=0;rounded=0;endFill=1;" edge="1" parent="1" source="--oIoFJsZWJyj96HP7yD-59" target="--oIoFJsZWJyj96HP7yD-62">
          <mxGeometry width="80" relative="1" as="geometry">
            <mxPoint x="-90" y="625" as="sourcePoint" />
            <mxPoint x="164.5" y="625" as="targetPoint" />
            <Array as="points">
              <mxPoint x="-10" y="625" />
            </Array>
          </mxGeometry>
        </mxCell>
        <mxCell id="--oIoFJsZWJyj96HP7yD-66" value="&lt;div&gt;12.編輯排程表()&lt;/div&gt;" style="html=1;verticalAlign=bottom;startArrow=none;startFill=0;endArrow=classicThin;startSize=6;endSize=8;curved=0;rounded=0;endFill=1;entryX=0;entryY=0;entryDx=0;entryDy=5;entryPerimeter=0;" edge="1" parent="1" source="--oIoFJsZWJyj96HP7yD-62" target="--oIoFJsZWJyj96HP7yD-64">
          <mxGeometry width="80" relative="1" as="geometry">
            <mxPoint x="12" y="670" as="sourcePoint" />
            <mxPoint x="470.32000000000016" y="670" as="targetPoint" />
          </mxGeometry>
        </mxCell>
        <mxCell id="--oIoFJsZWJyj96HP7yD-68" value="13.傳送行程資料()" style="html=1;verticalAlign=bottom;startArrow=none;startFill=0;endArrow=classicThin;startSize=6;endSize=8;curved=0;rounded=0;endFill=1;entryX=0;entryY=0;entryDx=0;entryDy=5;entryPerimeter=0;" edge="1" parent="1" source="--oIoFJsZWJyj96HP7yD-64" target="--oIoFJsZWJyj96HP7yD-67">
          <mxGeometry width="80" relative="1" as="geometry">
            <mxPoint x="105" y="680" as="sourcePoint" />
            <mxPoint x="480.32000000000016" y="680" as="targetPoint" />
          </mxGeometry>
        </mxCell>
        <mxCell id="--oIoFJsZWJyj96HP7yD-69" value="14.檢視行程資料()" style="html=1;verticalAlign=bottom;endArrow=classic;dashed=1;endSize=8;curved=0;rounded=0;endFill=1;" edge="1" parent="1" source="--oIoFJsZWJyj96HP7yD-67" target="--oIoFJsZWJyj96HP7yD-62">
          <mxGeometry relative="1" as="geometry">
            <mxPoint x="92" y="760" as="targetPoint" />
            <mxPoint x="608" y="760" as="sourcePoint" />
            <Array as="points">
              <mxPoint x="150" y="760" />
            </Array>
          </mxGeometry>
        </mxCell>
        <mxCell id="--oIoFJsZWJyj96HP7yD-64" value="" style="html=1;points=[[0,0,0,0,5],[0,1,0,0,-5],[1,0,0,0,5],[1,1,0,0,-5]];perimeter=orthogonalPerimeter;outlineConnect=0;targetShapes=umlLifeline;portConstraint=eastwest;newEdgeStyle={&quot;curved&quot;:0,&quot;rounded&quot;:0};" vertex="1" parent="1">
          <mxGeometry x="465" y="675" width="10" height="60" as="geometry" />
        </mxCell>
        <mxCell id="--oIoFJsZWJyj96HP7yD-23" value="" style="html=1;points=[[0,0,0,0,5],[0,1,0,0,-5],[1,0,0,0,5],[1,1,0,0,-5]];perimeter=orthogonalPerimeter;outlineConnect=0;targetShapes=umlLifeline;portConstraint=eastwest;newEdgeStyle={&quot;curved&quot;:0,&quot;rounded&quot;:0};" vertex="1" parent="1">
          <mxGeometry x="5" y="150" width="10" height="80" as="geometry" />
        </mxCell>
      </root>
    </mxGraphModel>
  </diagram>
</mxfile>
